<svg width="32" height="31" viewBox="0 0 32 31" fill="none" xmlns="http://www.w3.org/2000/svg">
<path d="M20.6597 17.5215C20.6597 17.5215 18.7502 17.4569 11.3193 17.4718C11.3193 17.4718 10.7188 18.428 10.4349 18.8663L10.3398 19.0131C10.0583 19.4478 9.67438 20.0405 9.43386 20.4102C9.16491 20.8186 8.46267 21.8994 7.87497 22.8009C7.28727 23.7023 6.76431 24.5241 6.71451 24.6187L5.49532 26.4615L7.5114 26.4366L24.3206 26.4615H26.5057L25.247 24.7433C25.1823 24.6088 24.7191 23.8468 24.211 23.0499C23.703 22.253 22.9112 21.0128 22.448 20.2857C21.9803 19.5594 20.6627 17.5261 20.6597 17.5215Z" fill="white"/>
<path fill-rule="evenodd" clip-rule="evenodd" d="M6.91067 3.62626L9.40729 3.64824V12.1095L8.10625 14.1314C7.38979 15.2435 6.56342 16.527 6.26453 16.9885C5.97003 17.45 5.30191 18.4873 4.78325 19.2961C4.26019 20.1049 3.34593 21.529 2.73936 22.4608L2.58006 22.7073C1.98774 23.6238 1.16767 24.8927 0.00536611 26.7025L0.000988089 27.6915C-0.00340727 28.5705 0.00537382 28.6892 0.0712984 28.7464C0.110859 28.7815 0.550421 29.2518 1.93499 30.7683H30.022L30.1583 30.6056C30.2374 30.5133 30.6814 30.0298 32 28.6145V26.8124L31.0462 25.3311C30.5231 24.5135 29.7583 23.3224 29.3495 22.6806C28.9408 22.0389 28.4309 21.2477 28.2199 20.9224C28.0133 20.5972 26.6507 18.4786 22.5541 12.1095L22.5497 3.64824H25.0991V0H6.85792L6.91067 3.62626ZM19.4729 12.7029C21.0509 15.138 21.741 16.2105 22.0223 16.6588C22.3036 17.1072 22.73 17.7709 22.9673 18.1313C23.2047 18.4961 23.9255 19.6126 24.5673 20.6147C25.2134 21.6169 25.8068 22.5488 25.8903 22.6806C25.9694 22.8125 26.3079 23.3399 26.6375 23.8454C26.9672 24.3509 27.5254 25.2124 27.8814 25.7574C28.2331 26.3025 28.6507 26.9442 28.8089 27.186L29.0946 27.6255C18.8971 27.6431 12.994 27.6431 9.39849 27.6387L2.85804 27.6255C3.60088 26.5003 4.50633 25.1069 5.34586 23.8015C6.18539 22.496 7.04691 21.151 7.26669 20.8125C7.48207 20.4741 8.0271 19.6258 8.47544 18.9225C8.92378 18.2192 9.6095 17.1643 9.9963 16.5709C10.3831 15.9775 11.0996 14.8611 11.5918 14.0875L12.4885 12.6809L12.4841 3.64824H19.4729V12.7029Z" fill="white"/>
</svg>
